<svg xmlns="http://www.w3.org/2000/svg" version="1.0" width="7347.000000pt" height="7347.000000pt" viewBox="0 0 7347.000000 7347.000000" preserveAspectRatio="xMidYMid meet">

<g transform="translate(0.000000,7347.000000) scale(0.100000,-0.100000)" fill="#ffffff" stroke="none">
<path d="M36127 65033 c-4 -3 -7 -1456 -7 -3228 l0 -3222 -187 -12 c-1927 -124 -3938 -534 -5723 -1168 -1437 -510 -2694 -1100 -3950 -1853 -1057 -634 -2065 -1360 -2974 -2144 -115 -99 -232 -201 -260 -227 l-51 -48 -2277 2277 -2278 2277 -900 -900 -900 -900 2277 -2277 c2125 -2125 2276 -2278 2262 -2295 -9 -10 -63 -72 -120 -138 -1249 -1431 -2360 -3115 -3174 -4815 -1308 -2729 -2009 -5573 -2125 -8620 -20 -527 -11 -1422 20 -1985 213 -3833 1439 -7530 3557 -10727 567 -856 1135 -1595 1841 -2398 586 -665 1371 -1443 2057 -2036 1053 -912 2249 -1758 3451 -2442 1817 -1033 3754 -1794 5759 -2261 1157 -270 2318 -442 3513 -522 l182 -12 0 -3224 0 -3223 1275 0 1275 0 0 3225 c0 2573 3 3225 13 3225 39 0 475 33 667 51 1842 165 3740 590 5450 1219 1324 487 2515 1055 3690 1760 1068 640 2093 1382 3020 2183 l225 195 2287 -2287 2288 -2286 900 900 900 900 -2286 2286 -2286 2286 120 135 c429 487 930 1119 1347 1703 1059 1481 1948 3135 2590 4820 861 2259 1325 4553 1415 6985 20 538 11 1415 -20 1975 -265 4750 -2088 9283 -5180 12873 -102 119 -196 229 -209 245 l-24 29 2287 2287 2286 2286 -900 900 -900 900 -2288 -2286 -2287 -2286 -169 148 c-1321 1168 -2900 2228 -4546 3052 -2554 1280 -5277 2025 -8147 2232 -117 8 -219 15 -228 15 -13 0 -15 347 -15 3230 l0 3230 -1268 0 c-698 0 -1272 -3 -1275 -7z m-6575 -22080 l6568 -6568 0 -9237 c0 -9105 0 -9238 -19 -9238 -31 0 -382 29 -556 45 -2693 259 -5259 1069 -7605 2403 -1268 721 -2427 1569 -3520 2577 -520 479 -1089 1069 -1545 1600 -1369 1597 -2462 3398 -3234 5325 -751 1875 -1195 3829 -1325 5835 -55 834 -55 1716 0 2550 265 4078 1844 7970 4501 11093 85 100 158 182 162 182 3 0 2961 -2955 6573 -6567z m22304 6475 c1112 -1305 1952 -2580 2689 -4082 623 -1270 1097 -2597 1425 -3991 443 -1882 598 -3858 455 -5795 -228 -3080 -1168 -5986 -2786 -8612 -535 -867 -1162 -1720 -1826 -2485 l-80 -91 -6279 6279 -6279 6279 6295 6295 c3462 3462 6298 6295 6301 6295 4 0 42 -42 85 -92z m-1968 -26892 c-89 -80 -510 -428 -693 -573 -1950 -1536 -4183 -2682 -6549 -3359 -1155 -330 -2435 -566 -3611 -664 -132 -11 -268 -22 -302 -25 l-63 -6 0 7963 0 7963 5630 -5630 5631 -5630 -43 -39z" fill="#ffffff"/>
<path d="M20822 35904 c-347 -58 -618 -262 -734 -552 -44 -110 -68 -238 -68 -365 0 -321 139 -568 455 -805 57 -42 274 -180 482 -305 208 -126 432 -266 497 -311 221 -155 336 -281 387 -426 21 -59 24 -82 24 -255 0 -217 -9 -265 -76 -400 -102 -205 -299 -363 -534 -426 -123 -33 -335 -31 -469 4 -117 31 -256 96 -346 163 -129 94 -190 155 -308 304 l-20 24 -96 -78 c-53 -43 -96 -82 -96 -86 0 -16 96 -125 188 -212 179 -170 391 -284 632 -339 110 -26 354 -36 472 -20 501 67 815 350 918 831 19 86 25 328 10 417 -29 180 -105 323 -250 470 -146 147 -302 257 -765 538 -558 338 -706 470 -792 703 -35 92 -43 275 -19 385 47 210 198 389 401 474 106 45 174 57 315 56 117 0 147 -4 225 -27 178 -54 385 -173 558 -321 43 -37 80 -65 82 -63 2 1 37 46 79 98 l77 95 -48 42 c-142 127 -387 273 -555 332 -194 67 -428 88 -626 55z" fill="#ffffff"/>
<path d="M30822 35906 c-302 -58 -524 -205 -695 -462 -221 -332 -330 -787 -352 -1474 -8 -222 6 -550 31 -739 103 -801 392 -1252 889 -1388 94 -26 113 -28 295 -28 167 1 208 4 283 23 397 99 649 378 722 800 9 51 13 97 10 102 -4 6 -61 10 -129 10 l-124 0 -12 -82 c-44 -302 -241 -526 -537 -610 -107 -30 -302 -30 -415 0 -414 112 -649 533 -718 1286 -30 330 -21 842 20 1163 62 477 211 829 429 1010 77 64 216 134 316 159 96 24 287 24 375 0 241 -66 424 -260 470 -500 l16 -81 127 -3 c147 -3 138 -13 111 116 -45 221 -181 430 -358 551 -71 49 -177 98 -272 127 -77 23 -111 27 -249 30 -108 2 -183 -1 -233 -10z" fill="#ffffff"/>
<path d="M23630 35730 l0 -110 275 0 275 0 0 -1755 0 -1755 -275 0 -275 0 0 -110 0 -110 680 0 680 0 0 110 0 110 -275 0 -275 0 0 1755 0 1755 275 0 275 0 0 110 0 110 -680 0 -680 0 0 -110z" fill="#ffffff"/>
<path d="M26650 33865 l0 -1975 130 0 130 0 0 1792 c0 1004 4 1788 9 1783 7 -9 387 -961 1175 -2950 l262 -660 137 -3 137 -3 0 1996 0 1995 -130 0 -130 0 0 -1692 c0 -931 -4 -1686 -9 -1678 -10 18 -459 1150 -1222 3083 l-113 287 -188 0 -188 0 0 -1975z" fill="#ffffff"/>
<path d="M33380 33865 l0 -1975 985 0 985 0 0 110 0 110 -855 0 -855 0 0 850 0 850 600 0 600 0 0 110 0 110 -600 0 -600 0 0 795 0 795 835 0 835 0 0 110 0 110 -965 0 -965 0 0 -1975z" fill="#ffffff"/>
<path d="M30665 29265 c-192 -63 -423 -137 -512 -165 l-163 -52 0 -125 c0 -101 3 -124 14 -120 11 4 436 139 704 222 l72 23 0 -1759 0 -1759 -375 0 -375 0 0 -110 0 -110 870 0 870 0 0 110 0 110 -365 0 -365 0 0 1925 c0 1534 -3 1925 -12 1924 -7 -1 -170 -52 -363 -114z" fill="#ffffff"/>
<path d="M24655 29316 c-386 -149 -631 -424 -652 -731 -13 -194 82 -377 235 -452 50 -25 68 -28 152 -28 82 0 103 4 152 27 73 34 142 103 176 176 24 50 27 70 27 157 0 89 -3 106 -28 156 -35 73 -98 130 -173 159 -49 18 -72 21 -141 17 -46 -3 -83 -1 -83 3 0 20 92 129 141 167 60 46 172 104 237 124 l42 12 0 119 c0 88 -3 118 -12 118 -7 -1 -40 -11 -73 -24z" fill="#ffffff"/>
<path d="M27550 29333 c-88 -14 -186 -40 -258 -69 -275 -110 -492 -366 -580 -684 -24 -84 -52 -238 -52 -281 l0 -29 128 0 128 0 17 111 c36 227 109 380 247 520 47 47 111 100 142 118 169 95 400 124 593 75 222 -57 392 -227 450 -449 26 -98 31 -257 11 -355 -64 -314 -238 -540 -791 -1025 -702 -616 -907 -906 -989 -1400 -18 -108 -36 -335 -36 -462 l0 -93 1055 0 1055 0 0 110 0 110 -925 0 -925 0 0 23 c0 61 22 261 36 330 73 364 307 670 959 1252 382 342 501 465 622 642 148 217 213 414 213 648 0 378 -161 665 -455 813 -81 40 -205 78 -299 91 -73 10 -291 13 -346 4z" fill="#ffffff"/>
<path d="M44393 40095 c-76 -21 -129 -50 -177 -99 -108 -108 -143 -305 -84 -480 37 -112 104 -183 218 -229 55 -22 56 -22 743 -25 l687 -3 0 -2454 0 -2454 -687 -3 c-766 -3 -721 1 -829 -73 -61 -42 -108 -106 -137 -183 -27 -76 -29 -252 -3 -327 41 -115 114 -192 224 -237 l57 -23 1775 -3 c1203 -2 1791 1 1824 8 148 32 252 132 292 283 21 81 20 2338 -1 2420 -50 192 -176 277 -410 277 -193 0 -314 -60 -379 -188 -45 -90 -46 -105 -46 -1052 l0 -900 -415 0 -415 0 0 2880 0 2880 -1092 -1 c-909 0 -1102 -3 -1145 -14z" fill="#ffffff"/>
<path d="M50521 40094 c-123 -33 -220 -115 -263 -222 -19 -49 -22 -75 -22 -187 0 -112 3 -138 22 -187 27 -67 95 -146 156 -182 100 -59 25 -56 1663 -56 l1503 0 0 -1015 0 -1015 -1262 0 c-1372 0 -1370 0 -1536 -56 -311 -104 -484 -321 -537 -674 -13 -79 -15 -334 -15 -1547 l0 -1453 1928 0 c1282 0 1942 4 1972 11 106 24 207 99 250 186 65 129 67 302 7 445 -38 90 -149 173 -265 197 -38 8 -486 11 -1547 11 l-1495 0 0 1015 0 1014 1318 4 c1227 3 1322 4 1387 21 162 41 358 167 466 299 67 83 122 195 150 309 l24 93 0 1140 c0 1033 -2 1147 -17 1212 -37 158 -98 270 -208 383 -119 122 -260 206 -415 246 -66 17 -157 18 -1640 21 -1352 2 -1577 0 -1624 -13z" fill="#ffffff"/>
</g>
</svg>